<svg width="25" height="25" viewBox="0 0 55 40" fill="none" xmlns="http://www.w3.org/2000/svg">
<path d="M49.1667 0H4.91667C3.61269 0 2.36211 0.518004 1.44006 1.44006C0.518005 2.36211 0 3.61269 0 4.91667V34.4167C0 35.7206 0.518005 36.9712 1.44006 37.8933C2.36211 38.8153 3.61269 39.3333 4.91667 39.3333H49.1667C50.4706 39.3333 51.7212 38.8153 52.6433 37.8933C53.5653 36.9712 54.0833 35.7206 54.0833 34.4167V4.91667C54.0833 3.61269 53.5653 2.36211 52.6433 1.44006C51.7212 0.518004 50.4706 0 49.1667 0V0ZM4.91667 4.91667H24.5833V34.4167H4.91667V4.91667ZM49.1667 34.4167H27.0417V4.91667H49.174L49.1667 34.4167ZM46.7083 23.3542C46.7083 22.6781 46.1552 22.125 45.4792 22.125H43.0208C42.3448 22.125 41.7917 22.6781 41.7917 23.3542V30.7292C41.7917 31.4052 42.3448 31.9583 43.0208 31.9583H45.4792C46.1552 31.9583 46.7083 31.4052 46.7083 30.7292V23.3542ZM39.3333 8.60417C39.3333 7.92812 38.7802 7.375 38.1042 7.375H30.7292C30.0531 7.375 29.5 7.92812 29.5 8.60417V20.8958C29.5 21.5719 30.0531 22.125 30.7292 22.125H38.1042C38.7802 22.125 39.3333 21.5719 39.3333 20.8958V8.60417ZM43.0208 14.75H45.4792C46.1552 14.75 46.7083 14.1969 46.7083 13.5208C46.7083 12.8448 46.1552 12.2917 45.4792 12.2917H43.0208C42.3448 12.2917 41.7917 12.8448 41.7917 13.5208C41.7917 14.1969 42.3448 14.75 43.0208 14.75ZM43.0208 19.6667H45.4792C46.1552 19.6667 46.7083 19.1135 46.7083 18.4375C46.7083 17.7615 46.1552 17.2083 45.4792 17.2083H43.0208C42.3448 17.2083 41.7917 17.7615 41.7917 18.4375C41.7917 19.1135 42.3448 19.6667 43.0208 19.6667ZM30.7292 27.0417H38.1042C38.7802 27.0417 39.3333 26.4885 39.3333 25.8125C39.3333 25.1365 38.7802 24.5833 38.1042 24.5833H30.7292C30.0531 24.5833 29.5 25.1365 29.5 25.8125C29.5 26.4885 30.0531 27.0417 30.7292 27.0417ZM38.1042 29.5H30.7292C30.0531 29.5 29.5 30.0531 29.5 30.7292C29.5 31.4052 30.0531 31.9583 30.7292 31.9583H38.1042C38.7802 31.9583 39.3333 31.4052 39.3333 30.7292C39.3333 30.0531 38.7802 29.5 38.1042 29.5ZM43.0208 9.83333H45.4792C46.1552 9.83333 46.7083 9.28021 46.7083 8.60417C46.7083 7.92812 46.1552 7.375 45.4792 7.375H43.0208C42.3448 7.375 41.7917 7.92812 41.7917 8.60417C41.7917 9.28021 42.3448 9.83333 43.0208 9.83333ZM22.125 8.60417C22.125 7.92812 21.5719 7.375 20.8958 7.375H8.60417C7.92812 7.375 7.375 7.92812 7.375 8.60417V15.9792C7.375 16.6552 7.92812 17.2083 8.60417 17.2083H20.8958C21.5719 17.2083 22.125 16.6552 22.125 15.9792V8.60417ZM20.8983 24.5833H8.60662C7.93304 24.5833 7.37746 25.1365 7.37746 25.8125C7.37746 26.4885 7.93304 27.0417 8.60662 27.0417H20.8983C21.5719 27.0417 22.125 26.4885 22.125 25.8125C22.125 25.1365 21.5719 24.5833 20.8983 24.5833ZM20.8983 19.6667H8.60662C7.93304 19.6667 7.37746 20.2198 7.37746 20.8958C7.37746 21.5719 7.93304 22.125 8.60662 22.125H20.8983C21.5719 22.125 22.125 21.5719 22.125 20.8958C22.125 20.2198 21.5719 19.6667 20.8983 19.6667ZM20.8983 29.5H8.60662C7.93304 29.5 7.37746 30.0531 7.37746 30.7292C7.37746 31.4052 7.93304 31.9583 8.60662 31.9583H20.8983C21.5719 31.9583 22.125 31.4052 22.125 30.7292C22.125 30.0531 21.5719 29.5 20.8983 29.5Z" fill="black"/>
</svg>
