  <svg
      width="25"
      height="25"
      viewBox="0 0 41 39"
      fill="none"
      xmlns="http://www.w3.org/2000/svg"
    >
      <path
        d="M29.6042 0C26.0517 0 22.6421 1.6875 20.4167 4.35417C18.1912 1.6875 14.7817 0 11.2292 0C4.94083 0 0 5.04167 0 11.4583C0 19.3333 6.94167 25.75 17.4563 35.5L20.4167 38.2292L23.3771 35.4792C33.8917 25.75 40.8333 19.3333 40.8333 11.4583C40.8333 5.04167 35.8925 0 29.6042 0ZM20.6208 32.3958L20.4167 32.6042L20.2125 32.3958C10.4942 23.4167 4.08333 17.4792 4.08333 11.4583C4.08333 7.29167 7.14583 4.16667 11.2292 4.16667C14.3733 4.16667 17.4358 6.22917 18.5179 9.08333H22.3358C23.3975 6.22917 26.46 4.16667 29.6042 4.16667C33.6875 4.16667 36.75 7.29167 36.75 11.4583C36.75 17.4792 30.3392 23.4167 20.6208 32.3958Z"
        fill="black"
      />
    </svg>